# xmcd
#
# Track frame offsets:
#	150
#	12985
#	28580
#	49908
#	63870
#	87221
#	108154
#	124389
#	139943
#
# Disc length: 2306 seconds
#
# Revision: 1
# Processed by: cddbd v1.5.1PL2 Copyright (c) Steve Scherf et al.
# Submitted via: audiograbber 1.83.01
#
DISCID=75090009
DTITLE=Mosquitos - Ventilator Blues (2006)
DYEAR=2006
DGENRE=
TTITLE0=The guns and the bombs
TTITLE1=Sylvia
TTITLE2=Zed
TTITLE3=By the gun
TTITLE4=There is a shade
TTITLE5=Kill the chief
TTITLE6=Bird singing
TTITLE7=At the end of it
TTITLE8=Nice at night
EXTD=
EXTT0=
EXTT1=
EXTT2=
EXTT3=
EXTT4=
EXTT5=
EXTT6=
EXTT7=
EXTT8=
PLAYORDER=
